<svg width="505" height="862" viewBox="0 0 505 862" fill="none" xmlns="http://www.w3.org/2000/svg">
<g opacity="0.08">
<path d="M415.407 581.042C380.873 530.52 310.526 513.893 252.33 517.73C300.294 503.661 359.769 498.544 391.745 456.336C410.291 433.314 411.57 387.908 393.024 362.967C384.071 350.176 372.56 339.305 358.49 330.351C329.712 313.084 291.98 304.131 258.725 304.131H225.471C231.226 306.05 237.621 307.968 243.377 311.166C244.656 311.166 245.296 311.805 246.575 312.445C247.214 312.445 248.493 313.084 249.133 313.724C306.05 314.363 357.211 346.339 356.572 406.454C356.572 424.36 352.734 439.069 345.06 450.581C320.119 489.591 269.597 499.823 228.668 516.451C228.668 516.451 227.389 517.09 226.75 517.73C222.912 520.288 217.796 520.927 213.32 522.846C212.041 522.846 210.762 524.125 209.483 524.765C208.204 524.765 206.925 526.044 205.646 526.683C190.297 533.078 174.309 542.032 166.635 554.822V524.765C166.635 524.765 166.635 524.765 166.635 524.125C165.356 519.009 166.635 513.253 166.635 508.137V318.2C166.635 314.363 166.635 310.526 166.635 307.329C166.635 307.329 166.635 307.329 166.635 306.689H64.3122V307.968C86.6953 311.166 107.16 328.433 109.078 350.816V505.579V506.858V734.526C109.078 746.038 105.241 756.27 96.9276 765.223L93.73 767.781C86.0558 775.455 76.463 780.572 64.3122 781.851C64.3122 782.49 239.54 782.49 239.54 782.49C305.41 782.49 354.013 770.339 385.989 746.677C432.035 715.341 449.301 632.843 416.686 583.6L415.407 581.042ZM372.56 691.039C360.409 723.015 336.107 747.317 302.852 760.747C270.876 776.734 203.087 770.339 165.995 771.618V578.484C180.704 529.241 238.9 516.451 284.306 527.323C359.769 544.59 400.059 616.855 372.56 691.039Z" fill="#832E1A"/>
<path d="M394.303 346.339C376.396 316.282 346.339 297.736 313.084 284.946C278.55 271.516 239.54 260.644 204.366 249.133C173.03 238.261 142.333 224.191 123.148 197.971C100.765 165.995 109.718 115.474 134.659 84.1373C157.682 55.9985 189.018 43.2081 229.947 43.8476C290.701 43.2081 343.142 70.0679 371.28 118.671L380.234 67.5098C370.641 61.7541 359.13 56.638 345.06 52.1614C273.434 31.6969 164.716 23.383 103.962 75.8234C58.5566 110.997 50.8822 187.739 85.4161 229.308C115.473 265.76 162.798 285.585 208.204 300.294C220.354 302.213 231.226 306.689 242.737 311.166C243.377 311.166 244.017 311.166 244.656 311.805C245.935 311.805 247.214 311.805 247.854 313.084C247.854 313.084 248.493 313.084 249.133 313.084C279.829 323.317 314.363 338.026 336.107 358.49C350.816 371.28 357.851 388.548 357.851 410.291C356.572 470.406 302.213 515.172 241.458 517.09C236.982 519.009 232.505 520.288 228.029 522.207C226.75 522.846 225.47 524.125 224.191 524.125C294.538 524.125 368.722 508.777 397.5 444.825C410.291 414.768 410.291 372.56 394.303 346.339Z" fill="#832E1A"/>
<path d="M311.805 1H193.495C87.1829 1 1 87.1827 1 193.495V668.656C1 774.968 87.1829 861.151 193.495 861.151H311.805C418.117 861.151 504.3 774.968 504.3 668.656V193.495C504.3 87.1827 418.117 1 311.805 1Z" stroke="#832E1A" stroke-miterlimit="10"/>
<path d="M195.413 155.763C253.609 159.6 255.528 167.274 260.644 239.54C263.842 165.356 268.318 160.24 325.235 155.763C268.318 151.286 264.481 146.17 260.644 71.9863C254.888 146.81 254.249 150.007 195.413 155.763Z" fill="#832E1A"/>
<path d="M181.983 105.881C202.448 107.16 203.727 110.357 205.006 135.938C206.285 109.718 207.564 107.799 228.029 105.881C207.564 104.602 206.285 102.683 205.006 75.8234C203.087 102.044 202.448 103.962 181.983 105.881Z" fill="#832E1A"/>
<path d="M281.109 205.006C295.178 205.646 295.817 208.203 297.096 225.47C297.736 207.564 299.015 206.285 313.084 205.006C299.015 203.727 298.375 202.448 297.096 184.541C295.817 202.448 295.178 203.727 281.109 205.006Z" fill="#832E1A"/>
<path d="M294.538 127.624C306.689 128.264 307.329 130.182 308.608 145.531C309.247 129.543 310.526 128.903 322.038 127.624C309.887 126.985 309.247 125.706 308.608 109.718C307.329 125.706 306.689 126.345 294.538 127.624Z" fill="#832E1A"/>
</g>
</svg>
