<svg width="89" height="163" viewBox="0 0 89 163" fill="none" xmlns="http://www.w3.org/2000/svg">
<path d="M68.1068 85.1309C63.0979 77.8031 52.8946 75.3914 44.4536 75.9479C51.4104 73.9073 60.0369 73.1652 64.6748 67.0432C67.3647 63.704 67.5503 57.1182 64.8603 53.5006C63.5617 51.6455 61.892 50.0686 59.8514 48.77C55.6773 46.2656 50.2046 44.967 45.3812 44.967H40.5578C41.3927 45.2453 42.3202 45.5235 43.155 45.9873C43.3406 45.9873 43.4333 46.0801 43.6188 46.1728C43.7116 46.1728 43.8971 46.2656 43.9899 46.3583C52.2453 46.4511 59.6659 51.089 59.5731 59.8082C59.5731 62.4054 59.0165 64.5388 57.9035 66.2084C54.2859 71.8666 46.9581 73.3507 41.0216 75.7624C41.0216 75.7624 40.8361 75.8552 40.7433 75.9479C40.1868 76.319 39.4447 76.4117 38.7954 76.69C38.6099 76.69 38.4244 76.8755 38.2389 76.9683C38.0534 76.9683 37.8679 77.1538 37.6824 77.2465C35.4562 78.1741 33.1372 79.4727 32.0242 81.3279V76.9683C32.0242 76.9683 32.0242 76.9683 32.0242 76.8755C31.8386 76.1334 32.0242 75.2986 32.0242 74.5566V47.0076C32.0242 46.4511 32.0242 45.8946 32.0242 45.4308C32.0242 45.4308 32.0242 45.4308 32.0242 45.338H17.183V45.5235C20.4295 45.9873 23.3977 48.4917 23.676 51.7383V74.1856V74.371V107.393C23.676 109.062 23.1195 110.546 21.9136 111.845L21.4498 112.216C20.3367 113.329 18.9454 114.071 17.183 114.257C17.183 114.349 42.5985 114.349 42.5985 114.349C52.1525 114.349 59.2021 112.587 63.8399 109.155C70.5185 104.61 73.0229 92.6442 68.2923 85.5019L68.1068 85.1309ZM61.892 101.085C60.1297 105.723 56.6049 109.248 51.7815 111.196C47.1436 113.515 37.3113 112.587 31.9314 112.773V84.7599C34.0648 77.6176 42.5057 75.7624 49.0915 77.3393C60.0369 79.8437 65.8806 90.3253 61.892 101.085Z" fill="#832E1A"/>
<path d="M65.0458 51.089C62.4486 46.7294 58.089 44.0394 53.2656 42.1843C48.2567 40.2364 42.5985 38.6595 37.4968 36.9898C32.9517 35.413 28.4994 33.3723 25.7167 29.5693C22.4702 24.9314 23.7687 17.6036 27.3863 13.0585C30.7256 8.97713 35.2707 7.12197 41.2071 7.21472C50.0191 7.12197 57.6252 11.0178 61.7065 18.0673L63.0051 10.6468C61.6138 9.81194 59.9441 9.06989 57.9035 8.42059C47.5146 5.45235 31.7459 4.24649 22.9339 11.8526C16.3482 16.9542 15.2351 28.0851 20.244 34.1144C24.6036 39.4015 31.4676 42.277 38.0534 44.4104C39.8158 44.6887 41.3926 45.338 43.0623 45.9873C43.155 45.9873 43.2478 45.9873 43.3406 46.0801C43.5261 46.0801 43.7116 46.0801 43.8044 46.2656C43.8044 46.2656 43.8971 46.2656 43.9899 46.2656C48.4422 47.7497 53.4511 49.8831 56.6049 52.8514C58.7383 54.7065 59.7586 57.211 59.7586 60.3647C59.5731 69.0839 51.6887 75.5769 42.8768 75.8552C42.2275 76.1334 41.5782 76.319 40.9289 76.5973C40.7434 76.69 40.5578 76.8755 40.3723 76.8755C50.5756 76.8755 61.3355 74.6493 65.5095 65.3736C67.3647 61.014 67.3647 54.892 65.0458 51.089Z" fill="#832E1A"/>
<path d="M53.0801 1H35.92C20.5002 1 8 13.5002 8 28.9199V97.8387C8 113.258 20.5002 125.759 35.92 125.759H53.0801C68.4999 125.759 81 113.258 81 97.8387V28.9199C81 13.5002 68.4999 1 53.0801 1Z" stroke="#832E1A" stroke-miterlimit="10"/>
<path d="M36.1982 23.4473C44.6392 24.0038 44.9174 25.1169 45.6595 35.5985C46.1233 24.8386 46.7726 24.0966 55.028 23.4473C46.7726 22.798 46.216 22.0559 45.6595 11.2961C44.8247 22.1487 44.7319 22.6125 36.1982 23.4473Z" fill="#832E1A"/>
<path d="M34.2503 16.2122C37.2186 16.3977 37.4041 16.8615 37.5896 20.5718C37.7751 16.7687 37.9606 16.4905 40.9289 16.2122C37.9606 16.0267 37.7751 15.7484 37.5896 11.8526C37.3113 15.6557 37.2186 15.9339 34.2503 16.2122Z" fill="#832E1A"/>
<path d="M48.6277 30.5896C50.6684 30.6823 50.7611 31.0534 50.9467 33.5578C51.0394 30.9606 51.2249 30.7751 53.2656 30.5896C51.2249 30.4041 51.1322 30.2185 50.9467 27.6213C50.7611 30.2185 50.6684 30.4041 48.6277 30.5896Z" fill="#832E1A"/>
<path d="M50.5756 19.366C52.338 19.4587 52.4308 19.737 52.6163 21.9632C52.7091 19.6442 52.8945 19.5515 54.5642 19.366C52.8018 19.2732 52.7091 19.0877 52.6163 16.7688C52.4308 19.0877 52.338 19.1804 50.5756 19.366Z" fill="#832E1A"/>
<path d="M1.05682 159.759V151.031H4.10795C4.71591 151.031 5.21733 151.137 5.61222 151.347C6.0071 151.554 6.30114 151.834 6.49432 152.186C6.6875 152.536 6.78409 152.923 6.78409 153.35C6.78409 153.725 6.71733 154.034 6.58381 154.279C6.45313 154.523 6.27983 154.716 6.06392 154.858C5.85085 155 5.61932 155.105 5.36932 155.173V155.259C5.63636 155.276 5.90483 155.369 6.17472 155.54C6.4446 155.71 6.67045 155.955 6.85227 156.273C7.03409 156.591 7.125 156.98 7.125 157.44C7.125 157.878 7.02557 158.271 6.8267 158.621C6.62784 158.97 6.31392 159.247 5.88494 159.452C5.45597 159.656 4.89773 159.759 4.21023 159.759H1.05682ZM2.11364 158.821H4.21023C4.90057 158.821 5.39063 158.688 5.6804 158.421C5.97301 158.151 6.11932 157.824 6.11932 157.44C6.11932 157.145 6.04403 156.872 5.89347 156.622C5.7429 156.369 5.52841 156.168 5.25 156.017C4.97159 155.864 4.64205 155.787 4.26136 155.787H2.11364V158.821ZM2.11364 154.867H4.07386C4.39205 154.867 4.67898 154.804 4.93466 154.679C5.19318 154.554 5.39773 154.378 5.5483 154.151C5.7017 153.923 5.77841 153.656 5.77841 153.35C5.77841 152.966 5.64489 152.641 5.37784 152.374C5.1108 152.104 4.6875 151.969 4.10795 151.969H2.11364V154.867ZM11.4695 159.895C10.8388 159.895 10.2947 159.756 9.83736 159.477C9.38281 159.196 9.03196 158.804 8.7848 158.301C8.54048 157.796 8.41832 157.208 8.41832 156.537C8.41832 155.867 8.54048 155.276 8.7848 154.764C9.03196 154.25 9.37571 153.85 9.81605 153.563C10.2592 153.273 10.7763 153.128 11.3672 153.128C11.7081 153.128 12.0447 153.185 12.3771 153.298C12.7095 153.412 13.0121 153.597 13.2848 153.852C13.5575 154.105 13.7749 154.44 13.9368 154.858C14.0987 155.276 14.1797 155.79 14.1797 156.401V156.827H9.13423V155.958H13.157C13.157 155.588 13.0831 155.259 12.9354 154.969C12.7905 154.679 12.5831 154.45 12.3132 154.283C12.0462 154.115 11.7308 154.031 11.3672 154.031C10.9666 154.031 10.62 154.131 10.3274 154.33C10.0376 154.526 9.81463 154.781 9.65838 155.097C9.50213 155.412 9.42401 155.75 9.42401 156.111V156.69C9.42401 157.185 9.50923 157.604 9.67969 157.948C9.85298 158.288 10.093 158.548 10.3999 158.727C10.7067 158.904 11.0632 158.992 11.4695 158.992C11.7337 158.992 11.9723 158.955 12.1854 158.881C12.4013 158.804 12.5874 158.69 12.7436 158.54C12.8999 158.387 13.0206 158.196 13.1058 157.969L14.0774 158.242C13.9751 158.571 13.8033 158.861 13.5618 159.111C13.3203 159.358 13.022 159.551 12.6669 159.69C12.3118 159.827 11.9126 159.895 11.4695 159.895ZM17.6357 159.912C17.2209 159.912 16.8445 159.834 16.5064 159.678C16.1683 159.519 15.8999 159.29 15.701 158.992C15.5021 158.69 15.4027 158.327 15.4027 157.901C15.4027 157.526 15.4766 157.222 15.6243 156.989C15.772 156.753 15.9695 156.568 16.2166 156.435C16.4638 156.301 16.7365 156.202 17.0348 156.137C17.3359 156.068 17.6385 156.014 17.9425 155.975C18.3402 155.923 18.6626 155.885 18.9098 155.86C19.1598 155.831 19.3416 155.784 19.4553 155.719C19.5717 155.654 19.63 155.54 19.63 155.378V155.344C19.63 154.923 19.5149 154.597 19.2848 154.364C19.0575 154.131 18.7124 154.014 18.2493 154.014C17.7692 154.014 17.3928 154.119 17.12 154.33C16.8473 154.54 16.6555 154.764 16.5447 155.003L15.5902 154.662C15.7607 154.264 15.9879 153.955 16.272 153.733C16.5589 153.509 16.8714 153.352 17.2095 153.264C17.5504 153.173 17.8857 153.128 18.2152 153.128C18.4254 153.128 18.6669 153.154 18.9396 153.205C19.2152 153.253 19.4808 153.354 19.7365 153.507C19.995 153.661 20.2095 153.892 20.38 154.202C20.5504 154.512 20.6357 154.926 20.6357 155.446V159.759H19.63V158.872H19.5788C19.5107 159.014 19.397 159.166 19.2379 159.328C19.0788 159.49 18.8672 159.628 18.603 159.742C18.3388 159.855 18.0163 159.912 17.6357 159.912ZM17.7891 159.009C18.1868 159.009 18.522 158.931 18.7947 158.774C19.0703 158.618 19.2777 158.416 19.4169 158.169C19.5589 157.922 19.63 157.662 19.63 157.389V156.469C19.5874 156.52 19.4936 156.567 19.3487 156.61C19.2067 156.649 19.0419 156.685 18.8544 156.716C18.6697 156.744 18.4893 156.77 18.3132 156.793C18.1399 156.813 17.9993 156.83 17.8913 156.844C17.63 156.878 17.3857 156.933 17.1584 157.01C16.9339 157.084 16.7521 157.196 16.6129 157.347C16.4766 157.494 16.4084 157.696 16.4084 157.952C16.4084 158.301 16.5376 158.565 16.7962 158.744C17.0575 158.921 17.3885 159.009 17.7891 159.009ZM26.5962 157.083V153.213H27.6019V159.759H26.5962V158.651H26.5281C26.3746 158.983 26.136 159.266 25.8121 159.499C25.4883 159.729 25.0792 159.844 24.5849 159.844C24.1758 159.844 23.8121 159.754 23.494 159.575C23.1758 159.394 22.9258 159.121 22.744 158.757C22.5621 158.391 22.4712 157.929 22.4712 157.372V153.213H23.4769V157.304C23.4769 157.781 23.6104 158.162 23.8775 158.446C24.1474 158.73 24.4911 158.872 24.9087 158.872C25.1587 158.872 25.413 158.808 25.6715 158.681C25.9329 158.553 26.1516 158.357 26.3278 158.092C26.5067 157.828 26.5962 157.492 26.5962 157.083ZM32.2905 153.213V154.065H28.8984V153.213H32.2905ZM29.8871 151.645H30.8928V157.884C30.8928 158.168 30.9339 158.381 31.0163 158.523C31.1016 158.662 31.2095 158.756 31.3402 158.804C31.4737 158.85 31.6143 158.872 31.7621 158.872C31.8729 158.872 31.9638 158.867 32.0348 158.855C32.1058 158.841 32.1626 158.83 32.2053 158.821L32.4098 159.725C32.3416 159.75 32.2464 159.776 32.1243 159.801C32.0021 159.83 31.8473 159.844 31.6598 159.844C31.3757 159.844 31.0973 159.783 30.8246 159.661C30.5547 159.538 30.3303 159.352 30.1513 159.102C29.9751 158.852 29.8871 158.537 29.8871 158.156V151.645ZM34.451 162.213C34.2805 162.213 34.1286 162.199 33.995 162.171C33.8615 162.145 33.7692 162.119 33.718 162.094L33.9737 161.208C34.218 161.27 34.4339 161.293 34.6214 161.276C34.8089 161.259 34.9751 161.175 35.12 161.024C35.2678 160.877 35.4027 160.637 35.5249 160.304L35.7124 159.793L33.2919 153.213H34.3828L36.1896 158.429H36.2578L38.0646 153.213H39.1555L36.3771 160.713C36.2521 161.051 36.0973 161.331 35.9126 161.553C35.728 161.777 35.5135 161.943 35.2692 162.051C35.0277 162.159 34.755 162.213 34.451 162.213ZM48.767 153.213C48.7159 152.781 48.5085 152.446 48.1449 152.208C47.7813 151.969 47.3352 151.85 46.8068 151.85C46.4205 151.85 46.0824 151.912 45.7926 152.037C45.5057 152.162 45.2813 152.334 45.1193 152.553C44.9602 152.771 44.8807 153.02 44.8807 153.298C44.8807 153.531 44.9361 153.732 45.0469 153.899C45.1605 154.064 45.3054 154.202 45.4815 154.313C45.6577 154.421 45.8423 154.51 46.0355 154.581C46.2287 154.649 46.4062 154.705 46.5682 154.747L47.4545 154.986C47.6818 155.046 47.9347 155.128 48.2131 155.233C48.4943 155.338 48.7628 155.482 49.0185 155.663C49.277 155.842 49.4901 156.073 49.6577 156.354C49.8253 156.635 49.9091 156.98 49.9091 157.389C49.9091 157.861 49.7855 158.287 49.5384 158.668C49.294 159.048 48.9361 159.351 48.4645 159.575C47.9957 159.8 47.4261 159.912 46.7557 159.912C46.1307 159.912 45.5895 159.811 45.1321 159.61C44.6776 159.408 44.3196 159.127 44.0582 158.766C43.7997 158.405 43.6534 157.986 43.6193 157.509H44.7102C44.7386 157.838 44.8494 158.111 45.0426 158.327C45.2386 158.54 45.4858 158.699 45.7841 158.804C46.0852 158.906 46.4091 158.958 46.7557 158.958C47.1591 158.958 47.5213 158.892 47.8423 158.762C48.1634 158.628 48.4176 158.443 48.6051 158.208C48.7926 157.969 48.8864 157.69 48.8864 157.372C48.8864 157.083 48.8054 156.847 48.6435 156.665C48.4815 156.483 48.2685 156.335 48.0043 156.222C47.7401 156.108 47.4545 156.009 47.1477 155.923L46.0739 155.617C45.392 155.421 44.8523 155.141 44.4545 154.777C44.0568 154.413 43.858 153.938 43.858 153.35C43.858 152.861 43.9901 152.435 44.2543 152.071C44.5213 151.705 44.8793 151.421 45.3281 151.219C45.7798 151.014 46.2841 150.912 46.8409 150.912C47.4034 150.912 47.9034 151.013 48.3409 151.215C48.7784 151.413 49.125 151.686 49.3807 152.033C49.6392 152.379 49.7756 152.773 49.7898 153.213H48.767ZM54.1694 159.895C53.5785 159.895 53.06 159.754 52.614 159.473C52.1708 159.192 51.8242 158.798 51.5742 158.293C51.3271 157.787 51.2035 157.196 51.2035 156.52C51.2035 155.838 51.3271 155.243 51.5742 154.735C51.8242 154.226 52.1708 153.831 52.614 153.55C53.06 153.269 53.5785 153.128 54.1694 153.128C54.7603 153.128 55.2773 153.269 55.7205 153.55C56.1665 153.831 56.5131 154.226 56.7603 154.735C57.0103 155.243 57.1353 155.838 57.1353 156.52C57.1353 157.196 57.0103 157.787 56.7603 158.293C56.5131 158.798 56.1665 159.192 55.7205 159.473C55.2773 159.754 54.7603 159.895 54.1694 159.895ZM54.1694 158.992C54.6183 158.992 54.9876 158.877 55.2773 158.646C55.5671 158.416 55.7816 158.114 55.9208 157.739C56.06 157.364 56.1296 156.958 56.1296 156.52C56.1296 156.083 56.06 155.675 55.9208 155.297C55.7816 154.919 55.5671 154.614 55.2773 154.381C54.9876 154.148 54.6183 154.031 54.1694 154.031C53.7205 154.031 53.3512 154.148 53.0614 154.381C52.7717 154.614 52.5572 154.919 52.418 155.297C52.2788 155.675 52.2092 156.083 52.2092 156.52C52.2092 156.958 52.2788 157.364 52.418 157.739C52.5572 158.114 52.7717 158.416 53.0614 158.646C53.3512 158.877 53.7205 158.992 54.1694 158.992ZM59.6761 151.031V159.759H58.6705V151.031H59.6761ZM65.6431 157.083V153.213H66.6488V159.759H65.6431V158.651H65.5749C65.4215 158.983 65.1829 159.266 64.859 159.499C64.5352 159.729 64.1261 159.844 63.6317 159.844C63.2227 159.844 62.859 159.754 62.5408 159.575C62.2227 159.394 61.9727 159.121 61.7908 158.757C61.609 158.391 61.5181 157.929 61.5181 157.372V153.213H62.5238V157.304C62.5238 157.781 62.6573 158.162 62.9244 158.446C63.1942 158.73 63.538 158.872 63.9556 158.872C64.2056 158.872 64.4599 158.808 64.7184 158.681C64.9798 158.553 65.1985 158.357 65.3746 158.092C65.5536 157.828 65.6431 157.492 65.6431 157.083ZM71.3374 153.213V154.065H67.9453V153.213H71.3374ZM68.9339 151.645H69.9396V157.884C69.9396 158.168 69.9808 158.381 70.0632 158.523C70.1484 158.662 70.2564 158.756 70.3871 158.804C70.5206 158.85 70.6612 158.872 70.8089 158.872C70.9197 158.872 71.0107 158.867 71.0817 158.855C71.1527 158.841 71.2095 158.83 71.2521 158.821L71.4567 159.725C71.3885 159.75 71.2933 159.776 71.1712 159.801C71.049 159.83 70.8942 159.844 70.7067 159.844C70.4226 159.844 70.1442 159.783 69.8714 159.661C69.6016 159.538 69.3771 159.352 69.1982 159.102C69.022 158.852 68.9339 158.537 68.9339 158.156V151.645ZM72.8501 159.759V153.213H73.8558V159.759H72.8501ZM73.3615 152.122C73.1655 152.122 72.9964 152.056 72.8544 151.922C72.7152 151.788 72.6456 151.628 72.6456 151.44C72.6456 151.253 72.7152 151.092 72.8544 150.959C72.9964 150.825 73.1655 150.759 73.3615 150.759C73.5575 150.759 73.7251 150.825 73.8643 150.959C74.0064 151.092 74.0774 151.253 74.0774 151.44C74.0774 151.628 74.0064 151.788 73.8643 151.922C73.7251 152.056 73.5575 152.122 73.3615 152.122ZM78.3569 159.895C77.766 159.895 77.2475 159.754 76.8015 159.473C76.3583 159.192 76.0117 158.798 75.7617 158.293C75.5146 157.787 75.391 157.196 75.391 156.52C75.391 155.838 75.5146 155.243 75.7617 154.735C76.0117 154.226 76.3583 153.831 76.8015 153.55C77.2475 153.269 77.766 153.128 78.3569 153.128C78.9478 153.128 79.4648 153.269 79.908 153.55C80.354 153.831 80.7006 154.226 80.9478 154.735C81.1978 155.243 81.3228 155.838 81.3228 156.52C81.3228 157.196 81.1978 157.787 80.9478 158.293C80.7006 158.798 80.354 159.192 79.908 159.473C79.4648 159.754 78.9478 159.895 78.3569 159.895ZM78.3569 158.992C78.8058 158.992 79.1751 158.877 79.4648 158.646C79.7546 158.416 79.9691 158.114 80.1083 157.739C80.2475 157.364 80.3171 156.958 80.3171 156.52C80.3171 156.083 80.2475 155.675 80.1083 155.297C79.9691 154.919 79.7546 154.614 79.4648 154.381C79.1751 154.148 78.8058 154.031 78.3569 154.031C77.908 154.031 77.5387 154.148 77.2489 154.381C76.9592 154.614 76.7447 154.919 76.6055 155.297C76.4663 155.675 76.3967 156.083 76.3967 156.52C76.3967 156.958 76.4663 157.364 76.6055 157.739C76.7447 158.114 76.9592 158.416 77.2489 158.646C77.5387 158.877 77.908 158.992 78.3569 158.992ZM83.8636 155.821V159.759H82.858V153.213H83.8295V154.236H83.9148C84.0682 153.904 84.3011 153.637 84.6136 153.435C84.9261 153.23 85.3295 153.128 85.8239 153.128C86.267 153.128 86.6548 153.219 86.9872 153.401C87.3196 153.58 87.5781 153.852 87.7628 154.219C87.9474 154.583 88.0398 155.043 88.0398 155.6V159.759H87.0341V155.668C87.0341 155.154 86.9006 154.753 86.6335 154.466C86.3665 154.176 86 154.031 85.5341 154.031C85.2131 154.031 84.9261 154.101 84.6733 154.24C84.4233 154.379 84.2259 154.583 84.081 154.85C83.9361 155.117 83.8636 155.44 83.8636 155.821Z" fill="#832E1A"/>
</svg>
